inDegrees=no
num_controls=7
num_derivatives=13
num_iterations=117
num_multipliers=7
num_parameters=0
num_slacks=7
num_states=26
objective=0.516825
objective_accelerations=0.040163
objective_balance=0.002270
objective_effort=0.044340
objective_height=0.418428
objective_ligament=0.011623
solver_duration=1577.868209
status=Solve_Succeeded
success=true
DataType=double
version=3
OpenSimVersion=4.5
endheader
time	/jointset/ground_pelvis/pelvis_tilt/value	/jointset/ground_pelvis/pelvis_tx/value	/jointset/ground_pelvis/pelvis_ty/value	/jointset/hip_l/hip_flexion_l/value	/jointset/hip_l/hip_adduction_l/value	/jointset/hip_l/hip_rotation_l/value	/jointset/back/lumbar_extension/value	/jointset/patellofemoral_l/patellar_flexion_l/value	/jointset/knee_l/knee_flexion_l/value	/jointset/knee_l/knee_adduction_l/value	/jointset/knee_l/knee_rotation_l/value	/jointset/ankle_l/ankle_angle_l/value	/jointset/subtalar_l/subtalar_angle_l/value	/jointset/ground_pelvis/pelvis_tilt/speed	/jointset/ground_pelvis/pelvis_tx/speed	/jointset/ground_pelvis/pelvis_ty/speed	/jointset/hip_l/hip_flexion_l/speed	/jointset/hip_l/hip_adduction_l/speed	/jointset/hip_l/hip_rotation_l/speed	/jointset/back/lumbar_extension/speed	/jointset/patellofemoral_l/patellar_flexion_l/speed	/jointset/knee_l/knee_flexion_l/speed	/jointset/knee_l/knee_adduction_l/speed	/jointset/knee_l/knee_rotation_l/speed	/jointset/ankle_l/ankle_angle_l/speed	/jointset/subtalar_l/subtalar_angle_l/speed	/forceset/tau_hip_flexion_l	/forceset/tau_hip_adduction_l	/forceset/tau_hip_rotation_l	/forceset/tau_knee_flexion_l	/forceset/tau_ankle_angle_l	/forceset/tau_subtalar_angle_l	/forceset/tau_lumbar_extension	lambda_cid13_p0	lambda_cid13_p1	lambda_cid13_p2	lambda_cid13_p3	lambda_cid13_p4	lambda_cid13_p5	lambda_cid14_p0	/jointset/ground_pelvis/pelvis_tilt/accel	/jointset/ground_pelvis/pelvis_tx/accel	/jointset/ground_pelvis/pelvis_ty/accel	/jointset/hip_l/hip_flexion_l/accel	/jointset/hip_l/hip_adduction_l/accel	/jointset/hip_l/hip_rotation_l/accel	/jointset/back/lumbar_extension/accel	/jointset/patellofemoral_l/patellar_flexion_l/accel	/jointset/knee_l/knee_flexion_l/accel	/jointset/knee_l/knee_adduction_l/accel	/jointset/knee_l/knee_rotation_l/accel	/jointset/ankle_l/ankle_angle_l/accel	/jointset/subtalar_l/subtalar_angle_l/accel	gamma_cid13_p0	gamma_cid13_p1	gamma_cid13_p2	gamma_cid13_p3	gamma_cid13_p4	gamma_cid13_p5	gamma_cid14_p0
1.5	-0.0196847082177109	-0.02864944141650025	0.8675232653333512	0.6416799953405857	-0.3123341871669044	-0.1780586711465671	-0.7841364508810825	0.6386593954840155	0.6386593954840151	-0.108064086102373	-0.1744732801465706	0.06493627560287908	0.004060351701192961	0.4013355013803633	0.2863507455912548	0.3487923136679995	-1.894670499498397	0.09402310802070105	-0.5360935536879406	0.8419628285899178	-1.64097507839316	-1.640975078393038	-0.1266117484953329	-0.0001423059978291922	-0.2355528199598436	0.02638738893916786	-0.2067455182092042	0.01395472362247556	-0.003843777343745223	-0.1905888023113909	0.1010202977082676	0.04632612675087597	0.2809995610594064	-10.11669597096058	-20.43614806596982	5.188853346162005	-8.812426444551297	-671.9952639196113	-80.96095672009223	-19.94898444308975	0.002245274911938143	0.6346634434843371	-0.5114638829894568	-0.6235459219586453	0.320195124541271	-0.21080323843381	1.719814455473027	-0.6154489828831722	-0.6154489828831919	-0.2923920556588057	0.03517473754074536	0.03164358906918544	0.3394895828114957	4.646417152763884e-10	1.017194481563546e-06	1.541777978606329e-07	1.581059896586992e-07	8.546044432305151e-08	1.33205335933786e-07	1.003663072219667e-07
1.51	-0.01567169288963584	-0.02575448354450308	0.8709849525964378	0.6227041716763951	-0.3113784195186687	-0.1834312815160268	-0.7756319934654218	0.6222209681278565	0.6222209681278579	-0.1093447510481592	-0.17447473609488	0.06258266089715471	0.004340795139769329	0.4012136564957383	0.2926090188795131	0.3434799045428613	-1.900257302875747	0.09712072379872276	-0.538376097955293	0.8588186507311509	-1.646490044885476	-1.646490044885464	-0.1295181112424308	-0.0001513541797710173	-0.2351205585365152	0.02970522024388132	-0.1992511939276158	0.01310375641681247	-0.003804811800272081	-0.1879137071162772	0.1003734808305127	0.04548656053988472	0.2740512291785356	-10.13016205082406	-20.11997983911528	5.196488401677553	-8.56534694885088	-668.2627955598621	-80.92173849116608	-20.4228019095174	-0.02749539979488378	0.6166708343612718	-0.5508987887497755	-0.490719947964363	0.3029169171276256	-0.2290382681793444	1.651965521698748	-0.4864872330455051	-0.4864872330621727	-0.2890941531943969	-0.01930116662706177	0.05647898173870562	0.3283291219740518	-8.917069513608892e-09	1.036759428481581e-06	1.862494967675496e-07	1.628274866917815e-07	8.119479299841787e-08	1.323569948733521e-07	9.663867987885849e-08
1.52	-0.01166151521633811	-0.02279789062705056	0.8743915618959782	0.6036795854979605	-0.3103920012901104	-0.1888251289776255	-0.7669622779426992	0.6057339977566395	0.6057339977566552	-0.1106543467752044	-0.1744763538391294	0.06023486111821755	0.004654496734927367	0.4007679704253204	0.2986777546823275	0.3377767209587723	-1.904423002346742	0.1001532240845488	-0.5403409721143833	0.8750144500024051	-1.650683681403383	-1.650683681403483	-0.1323979047478956	-0.0001746651843285252	-0.234389834602225	0.0330390202555054	-0.1917568696460428	0.01225278921113004	-0.003765846256699732	-0.1852386119211768	0.09972666395274897	0.04464699432886549	0.2671028972976593	-10.14954781108777	-19.8027361125067	5.203907368479087	-8.320336125535164	-664.6305394741486	-80.90006994028202	-20.8727292991707	-0.06252296224674826	0.5967559463956037	-0.5896187747796043	-0.3393251406875579	0.3071720261021181	-0.1472692167814311	1.587809881477159	-0.351182988001504	-0.3511829880015007	-0.2870782073322008	0.03232217301760303	0.09133609126162408	0.3426833241936431	-9.741918300935188e-09	1.035700946471274e-06	1.752427759717592e-07	1.6040492007757e-07	8.426787858968098e-08	1.365281362332677e-07	9.654937256133417e-08
1.53	-0.007657434806592495	-0.01978160735681622	0.877739246162814	0.5846204493184554	-0.3093756262243109	-0.1942368658192388	-0.7581340140773277	0.5892116792764761	0.5892116792764723	-0.1119927659989082	-0.174478140438739	0.05789584397590363	0.005001566450543347	0.3999917270401422	0.3045417950427252	0.3317007765818955	-1.90716287832155	0.1031090934659845	-0.5419557696341161	0.8905168783513964	-1.653556915041921	-1.65355691504199	-0.1352798905137239	-0.0001869226260786862	-0.2333639645863097	0.03637603885048604	-0.1841466298497892	0.01134377555999684	-0.003786430106924128	-0.1827363206201727	0.09928116836809424	0.04369426961258685	0.260069151558484	-10.11777578020815	-19.44188583618826	5.200468746996275	-8.07469841624688	-661.12789671184	-80.81357874780312	-21.29594629895737	-0.09364100400305218	0.5756914390597514	-0.6254654515039476	-0.2051252084242244	0.2877363716080421	-0.1609059723209345	1.513242603440101	-0.2219490831565312	-0.221949083151858	-0.287670894703424	-0.01864737693380286	0.1156819904964291	0.329210297263865	-1.475100744105165e-09	1.012730071224603e-06	1.184652342418428e-07	1.503917858381091e-07	9.513837215408428e-08	1.460324776648047e-07	1.003257802709928e-07
1.54	-0.003662810026172053	-0.01670779101133851	0.8810243943494087	0.5655411531026902	-0.3083301040692072	-0.1996632148266017	-0.7491543692701009	0.5726673173536478	0.5726673173536336	-0.1133597875069666	-0.1744801791476019	0.05556857944049663	0.005382006186131836	0.3988768445609891	0.3101843697310022	0.3252695049105311	-1.908455009598226	0.1059826419451715	-0.543263405263919	0.9052906383735972	-1.655092369935521	-1.655092369935559	-0.1381183616193646	-0.0002250870343272325	-0.2320393132207954	0.03971302425001032	-0.1765363900535416	0.01043476190885641	-0.003807013957103982	-0.1802340293191747	0.09883567278343675	0.04274154489629946	0.2530354058193068	-10.09218367416364	-19.0794973359178	5.196263905941371	-7.829717459563335	-657.7284014696191	-80.74618578443996	-21.68970378051835	-0.13025078104184	0.5524628119715675	-0.6606842336771006	-0.04977620106103845	0.2907078456523719	-0.0858368387954745	1.442076216119024	-0.08362723901398711	-0.08362723901398703	-0.2783752752947049	0.02714077971792197	0.1510923611815143	0.3426766851023967	2.111403193309794e-09	9.926594221555364e-07	8.536224234552924e-08	1.427821950943101e-07	1.026459759236766e-07	1.514023010640431e-07	1.011009691370286e-07
